<svg width="23" height="45" viewBox="0 0 23 45" fill="none" xmlns="http://www.w3.org/2000/svg">
<g opacity="0.3">
<mask id="path-1-outside-1_20_9987" maskUnits="userSpaceOnUse" x="-1" y="-1" width="25" height="47" fill="black">
<rect fill="white" x="-1" y="-1" width="25" height="47"/>
<path d="M22.568 0.839996V45H13.736V10.12L0.872 17.224V8.904L11.112 2.824C13.48 1.48 15.784 0.839996 18.216 0.839996H22.568Z"/>
</mask>
<path d="M22.568 0.839996H23.568V-0.160004H22.568V0.839996ZM22.568 45V46H23.568V45H22.568ZM13.736 45H12.736V46H13.736V45ZM13.736 10.12H14.736V8.42541L13.2526 9.24461L13.736 10.12ZM0.872 17.224H-0.128V18.9186L1.35542 18.0994L0.872 17.224ZM0.872 8.904L0.361461 8.04414L-0.128 8.33476V8.904H0.872ZM11.112 2.824L10.6184 1.95431L10.6099 1.95914L10.6015 1.96414L11.112 2.824ZM21.568 0.839996V45H23.568V0.839996H21.568ZM22.568 44H13.736V46H22.568V44ZM14.736 45V10.12H12.736V45H14.736ZM13.2526 9.24461L0.388577 16.3486L1.35542 18.0994L14.2194 10.9954L13.2526 9.24461ZM1.872 17.224V8.904H-0.128V17.224H1.872ZM1.38254 9.76385L11.6225 3.68385L10.6015 1.96414L0.361461 8.04414L1.38254 9.76385ZM11.6056 3.69368C13.8402 2.4254 15.9757 1.84 18.216 1.84V-0.160004C15.5923 -0.160004 13.1198 0.534599 10.6184 1.95431L11.6056 3.69368ZM18.216 1.84H22.568V-0.160004H18.216V1.84Z" fill="#0D1821" mask="url(#path-1-outside-1_20_9987)"/>
</g>
</svg>
