<svg width="34" height="46" viewBox="0 0 34 46" fill="none" xmlns="http://www.w3.org/2000/svg">
<g opacity="0.3">
<mask id="path-1-outside-1_20_10001" maskUnits="userSpaceOnUse" x="-1" y="-1" width="36" height="48" fill="black">
<rect fill="white" x="-1" y="-1" width="36" height="48"/>
<path d="M14.28 39.024H32.968V46H0.776V41.84L15.624 27.312C21.576 21.488 23.944 18.352 23.944 14.128C23.944 10.224 21.704 7.472 17.608 7.472C13.192 7.472 11.08 10.224 10.504 15.536L10.44 16.176H1.672L1.736 15.536C2.632 6.064 8.52 0.879997 18.44 0.879997C28.168 0.879997 33.288 6.064 33.288 13.616C33.288 19.184 30.536 23.152 22.472 31.024L14.28 39.024Z"/>
</mask>
<path d="M14.28 39.024L13.5813 38.3086L11.8247 40.024H14.28V39.024ZM32.968 39.024H33.968V38.024H32.968V39.024ZM32.968 46V47H33.968V46H32.968ZM0.776 46H-0.224V47H0.776V46ZM0.776 41.84L0.0766377 41.1252L-0.224 41.4194V41.84H0.776ZM15.624 27.312L16.3234 28.0268L16.3234 28.0267L15.624 27.312ZM10.504 15.536L9.50979 15.4282L9.50896 15.4365L10.504 15.536ZM10.44 16.176V17.176H11.345L11.435 16.2755L10.44 16.176ZM1.672 16.176L0.676963 16.0765L0.567013 17.176H1.672V16.176ZM1.736 15.536L2.73105 15.6355L2.73156 15.6302L1.736 15.536ZM22.472 31.024L21.7735 30.3084L21.7733 30.3086L22.472 31.024ZM14.28 40.024H32.968V38.024H14.28V40.024ZM31.968 39.024V46H33.968V39.024H31.968ZM32.968 45H0.776V47H32.968V45ZM1.776 46V41.84H-0.224V46H1.776ZM1.47536 42.5548L16.3234 28.0268L14.9246 26.5972L0.0766377 41.1252L1.47536 42.5548ZM16.3234 28.0267C22.2404 22.237 24.944 18.8257 24.944 14.128H22.944C22.944 17.8783 20.9116 20.739 14.9246 26.5972L16.3234 28.0267ZM24.944 14.128C24.944 11.9905 24.3294 10.0647 23.051 8.66232C21.7608 7.24697 19.8916 6.472 17.608 6.472V8.472C19.4204 8.472 20.7192 9.07302 21.573 10.0097C22.4386 10.9593 22.944 12.3615 22.944 14.128H24.944ZM17.608 6.472C15.1713 6.472 13.2349 7.24377 11.8548 8.86343C10.5141 10.4369 9.8071 12.6867 9.50983 15.4282L11.4982 15.6438C11.7769 13.0733 12.4139 11.2911 13.3772 10.1606C14.3011 9.07622 15.6287 8.472 17.608 8.472V6.472ZM9.50896 15.4365L9.44496 16.0765L11.435 16.2755L11.499 15.6355L9.50896 15.4365ZM10.44 15.176H1.672V17.176H10.44V15.176ZM2.66704 16.2755L2.73104 15.6355L0.740963 15.4365L0.676963 16.0765L2.66704 16.2755ZM2.73156 15.6302C3.1616 11.084 4.77489 7.68099 7.36386 5.40739C9.95765 3.12955 13.6507 1.88 18.44 1.88V-0.120003C13.3093 -0.120003 9.09835 1.22244 6.04414 3.90461C2.98511 6.59101 1.2064 10.516 0.740444 15.4418L2.73156 15.6302ZM18.44 1.88C23.1331 1.88 26.581 3.1293 28.8441 5.16024C31.0951 7.18041 32.288 10.0755 32.288 13.616H34.288C34.288 9.60454 32.9209 6.13159 30.1799 3.67175C27.451 1.22269 23.4749 -0.120003 18.44 -0.120003V1.88ZM32.288 13.616C32.288 18.722 29.8508 22.4235 21.7735 30.3084L23.1705 31.7396C31.2213 23.8805 34.288 19.646 34.288 13.616H32.288ZM21.7733 30.3086L13.5813 38.3086L14.9787 39.7394L23.1707 31.7394L21.7733 30.3086Z" fill="#0D1821" mask="url(#path-1-outside-1_20_10001)"/>
</g>
</svg>
