<svg width="35" height="47" viewBox="0 0 35 47" fill="none" xmlns="http://www.w3.org/2000/svg">
<g opacity="0.3">
<mask id="path-1-outside-1_20_10004" maskUnits="userSpaceOnUse" x="-1" y="-1" width="37" height="49" fill="black">
<rect fill="white" x="-1" y="-1" width="37" height="49"/>
<path d="M25.52 22.64C31.472 23.984 34.736 27.504 34.736 33.264C34.736 41.584 27.568 46.896 17.648 46.896C7.664 46.896 1.456 42.224 0.496 33.072L0.432 32.432H9.264L9.392 33.072C10.032 37.552 13.104 40.304 17.584 40.304C22.256 40.304 25.392 37.616 25.392 33.584C25.392 29.168 22.384 26.8 16.624 26.672H15.152V20.528L16.624 20.464C21.296 20.272 24.368 17.648 24.368 13.488C24.368 9.904 22 7.536 18.096 7.536C14.128 7.536 11.696 10.352 11.248 14.512L11.184 15.152H2.416L2.48 14.512C3.248 6.832 8.752 0.943996 19.056 0.943996C28.656 0.943996 33.712 6 33.712 12.464C33.712 17.584 30.832 21.232 25.52 22.64Z"/>
</mask>
<path d="M25.52 22.64L25.2638 21.6734L25.2997 23.6154L25.52 22.64ZM0.496 33.072L-0.499049 33.1715L-0.498544 33.1763L0.496 33.072ZM0.432 32.432V31.432H-0.672987L-0.563037 32.5315L0.432 32.432ZM9.264 32.432L10.2446 32.2359L10.0838 31.432H9.264V32.432ZM9.392 33.072L10.3819 32.9306L10.378 32.9031L10.3726 32.8759L9.392 33.072ZM16.624 26.672L16.6462 25.6722L16.6351 25.672H16.624V26.672ZM15.152 26.672H14.152V27.672H15.152V26.672ZM15.152 20.528L15.1086 19.5289L14.152 19.5705V20.528H15.152ZM16.624 20.464L16.5829 19.4648L16.5806 19.4649L16.624 20.464ZM11.248 14.512L10.2537 14.4049L10.253 14.4125L11.248 14.512ZM11.184 15.152V16.152H12.089L12.179 15.2515L11.184 15.152ZM2.416 15.152L1.42096 15.0525L1.31101 16.152H2.416V15.152ZM2.48 14.512L1.48496 14.4125H1.48496L2.48 14.512ZM25.2997 23.6154C28.137 24.2561 30.2284 25.3917 31.6102 26.9576C32.9814 28.5117 33.736 30.5825 33.736 33.264H35.736C35.736 30.1855 34.8586 27.6163 33.1098 25.6344C31.3716 23.6643 28.855 22.3679 25.7403 21.6646L25.2997 23.6154ZM33.736 33.264C33.736 37.1067 32.0934 40.2275 29.2965 42.4119C26.4787 44.6125 22.4392 45.896 17.648 45.896V47.896C22.7768 47.896 27.2813 46.5235 30.5275 43.9881C33.7946 41.4365 35.736 37.7413 35.736 33.264H33.736ZM17.648 45.896C12.802 45.896 8.9986 44.7618 6.30876 42.632C3.63703 40.5166 1.94786 37.3274 1.49054 32.9677L-0.498544 33.1763C0.00414371 37.9686 1.89897 41.6914 5.06724 44.2C8.2174 46.6942 12.51 47.896 17.648 47.896V45.896ZM1.49104 32.9725L1.42704 32.3325L-0.563037 32.5315L-0.499037 33.1715L1.49104 32.9725ZM0.432 33.432H9.264V31.432H0.432V33.432ZM8.28342 32.6281L8.41142 33.2681L10.3726 32.8759L10.2446 32.2359L8.28342 32.6281ZM8.40205 33.2134C8.75006 35.6495 9.7722 37.6871 11.3847 39.1163C12.9993 40.5475 15.1332 41.304 17.584 41.304V39.304C15.5548 39.304 13.9127 38.6845 12.7113 37.6197C11.5078 36.5529 10.6739 34.9745 10.3819 32.9306L8.40205 33.2134ZM17.584 41.304C20.1068 41.304 22.3064 40.5773 23.8919 39.2143C25.4909 37.8397 26.392 35.878 26.392 33.584H24.392C24.392 35.322 23.7251 36.7203 22.5881 37.6977C21.4376 38.6867 19.7332 39.304 17.584 39.304V41.304ZM26.392 33.584C26.392 31.1265 25.541 29.1168 23.787 27.7346C22.0762 26.3865 19.6361 25.7387 16.6462 25.6722L16.6018 27.6718C19.3719 27.7333 21.3158 28.3335 22.549 29.3054C23.739 30.2432 24.392 31.6255 24.392 33.584H26.392ZM16.624 25.672H15.152V27.672H16.624V25.672ZM16.152 26.672V20.528H14.152V26.672H16.152ZM15.1954 21.5271L16.6674 21.4631L16.5806 19.4649L15.1086 19.5289L15.1954 21.5271ZM16.6651 21.4632C19.1717 21.3601 21.3474 20.6004 22.9118 19.2119C24.4926 17.8088 25.368 15.8332 25.368 13.488H23.368C23.368 15.3028 22.7074 16.7192 21.5842 17.7161C20.4446 18.7276 18.7483 19.3759 16.5829 19.4648L16.6651 21.4632ZM25.368 13.488C25.368 11.4699 24.696 9.70568 23.3896 8.44768C22.0866 7.19286 20.2507 6.536 18.096 6.536V8.536C19.8453 8.536 21.1454 9.06314 22.0024 9.88832C22.856 10.7103 23.368 11.9221 23.368 13.488H25.368ZM18.096 6.536C15.8564 6.536 13.9877 7.33953 12.6262 8.77612C11.28 10.1965 10.495 12.1647 10.2537 14.4049L12.2423 14.6191C12.449 12.6993 13.104 11.1795 14.0778 10.1519C15.0363 9.14047 16.3676 8.536 18.096 8.536V6.536ZM10.253 14.4125L10.189 15.0525L12.179 15.2515L12.243 14.6115L10.253 14.4125ZM11.184 14.152H2.416V16.152H11.184V14.152ZM3.41104 15.2515L3.47504 14.6115L1.48496 14.4125L1.42096 15.0525L3.41104 15.2515ZM3.47504 14.6115C3.8377 10.9849 5.30937 7.83973 7.85312 5.59828C10.3963 3.35737 14.0976 1.944 19.056 1.944V-0.0560036C13.7104 -0.0560036 9.50774 1.47463 6.53088 4.09772C3.55463 6.72027 1.8903 10.3591 1.48496 14.4125L3.47504 14.6115ZM19.056 1.944C23.6871 1.944 27.1017 3.16283 29.3404 5.04536C31.5652 6.91618 32.712 9.50941 32.712 12.464H34.712C34.712 8.95459 33.3308 5.78781 30.6276 3.51464C27.9383 1.25316 24.0249 -0.0560036 19.056 -0.0560036V1.944ZM32.712 12.464C32.712 14.8301 32.0499 16.7926 30.8275 18.3189C29.6022 19.8487 27.7553 21.013 25.2638 21.6734L25.7762 23.6066C28.5967 22.859 30.8458 21.4953 32.3885 19.5691C33.9341 17.6394 34.712 15.2179 34.712 12.464H32.712Z" fill="#0D1821" mask="url(#path-1-outside-1_20_10004)"/>
</g>
</svg>
