<svg width="20" height="19" viewBox="0 0 20 19" fill="none" xmlns="http://www.w3.org/2000/svg">
    <path
        d="M5.55273 10.7529H9.98242C10.1816 10.7529 10.3486 10.6855 10.4834 10.5508C10.6182 10.416 10.6855 10.249 10.6855 10.0498V4.29297C10.6855 4.09961 10.6182 3.93555 10.4834 3.80078C10.3486 3.66602 10.1816 3.59863 9.98242 3.59863C9.78906 3.59863 9.625 3.66602 9.49023 3.80078C9.35547 3.93555 9.28809 4.09961 9.28809 4.29297V9.35547H5.55273C5.35352 9.35547 5.18652 9.42285 5.05176 9.55762C4.91699 9.68652 4.84961 9.85059 4.84961 10.0498C4.84961 10.249 4.91699 10.416 5.05176 10.5508C5.18652 10.6855 5.35352 10.7529 5.55273 10.7529ZM9.99121 18.7334C8.74902 18.7334 7.58008 18.4961 6.48438 18.0215C5.38867 17.5527 4.42188 16.8994 3.58398 16.0615C2.75195 15.2236 2.09863 14.2568 1.62402 13.1611C1.14941 12.0654 0.912109 10.8965 0.912109 9.6543C0.912109 8.41211 1.14941 7.24316 1.62402 6.14746C2.09863 5.05176 2.75195 4.08789 3.58398 3.25586C4.42188 2.41797 5.38574 1.76172 6.47559 1.28711C7.57129 0.8125 8.74023 0.575195 9.98242 0.575195C11.2305 0.575195 12.4023 0.8125 13.498 1.28711C14.5938 1.76172 15.5605 2.41797 16.3984 3.25586C17.2363 4.08789 17.8926 5.05176 18.3672 6.14746C18.8418 7.24316 19.0791 8.41211 19.0791 9.6543C19.0791 10.8965 18.8418 12.0654 18.3672 13.1611C17.8926 14.2568 17.2363 15.2236 16.3984 16.0615C15.5605 16.8994 14.5938 17.5527 13.498 18.0215C12.4023 18.4961 11.2334 18.7334 9.99121 18.7334Z"
        fill="currentColor" />
</svg>