<svg width="18" height="18" viewBox="0 0 18 18" fill="none" xmlns="http://www.w3.org/2000/svg">
    <path
        d="M6.77734 17.7285C6.25651 17.7285 5.8138 17.5039 5.44922 17.0547L0.390625 10.8242C0.247396 10.6549 0.143229 10.4889 0.078125 10.3262C0.0195312 10.1634 -0.00976562 9.99414 -0.00976562 9.81836C-0.00976562 9.42773 0.120443 9.10547 0.380859 8.85156C0.641276 8.59766 0.970052 8.4707 1.36719 8.4707C1.81641 8.4707 2.19401 8.66276 2.5 9.04688L6.73828 14.418L15.0098 1.3125C15.179 1.05208 15.3548 0.869792 15.5371 0.765625C15.7194 0.654948 15.9473 0.599609 16.2207 0.599609C16.6178 0.599609 16.9434 0.723307 17.1973 0.970703C17.4512 1.2181 17.5781 1.53385 17.5781 1.91797C17.5781 2.07422 17.5521 2.23047 17.5 2.38672C17.4479 2.54297 17.3665 2.70573 17.2559 2.875L8.11523 17.0156C7.80273 17.4909 7.35677 17.7285 6.77734 17.7285Z"
        fill="currentColor" />
</svg>