<svg width="15" height="14" viewBox="0 0 15 14" fill="none" xmlns="http://www.w3.org/2000/svg">
<path d="M7.5 13.8467C6.56478 13.8467 5.6849 13.6696 4.86035 13.3154C4.03581 12.9613 3.30811 12.4688 2.67725 11.8379C2.04639 11.2015 1.55111 10.471 1.19141 9.64648C0.83724 8.82194 0.660156 7.94206 0.660156 7.00684C0.660156 6.07161 0.83724 5.19173 1.19141 4.36719C1.55111 3.54264 2.04362 2.81494 2.66895 2.18408C3.2998 1.55322 4.02751 1.06071 4.85205 0.706543C5.6766 0.352376 6.55648 0.175293 7.4917 0.175293C8.43245 0.175293 9.3151 0.352376 10.1396 0.706543C10.9642 1.06071 11.6919 1.55322 12.3228 2.18408C12.9536 2.81494 13.4461 3.54264 13.8003 4.36719C14.16 5.19173 14.3398 6.07161 14.3398 7.00684C14.3398 7.94206 14.16 8.82194 13.8003 9.64648C13.4461 10.471 12.9536 11.2015 12.3228 11.8379C11.6974 12.4688 10.9725 12.9613 10.1479 13.3154C9.3234 13.6696 8.44076 13.8467 7.5 13.8467ZM6.77783 10.2607C7.07113 10.2607 7.30355 10.1279 7.4751 9.8623L10.4468 5.27197C10.5021 5.18343 10.5492 5.09489 10.5879 5.00635C10.6266 4.91781 10.646 4.82926 10.646 4.74072C10.646 4.53597 10.5685 4.37272 10.4136 4.25098C10.2642 4.12923 10.0954 4.06836 9.90723 4.06836C9.65267 4.06836 9.44238 4.20394 9.27637 4.4751L6.75293 8.52588L5.64062 7.10645C5.55208 6.9847 5.45801 6.90169 5.3584 6.85742C5.26432 6.80762 5.15918 6.78271 5.04297 6.78271C4.84375 6.78271 4.67497 6.85465 4.53662 6.99854C4.39827 7.13688 4.3291 7.3029 4.3291 7.49658C4.3291 7.68473 4.39827 7.86458 4.53662 8.03613L6.03906 9.87061C6.14421 9.99788 6.25488 10.0947 6.37109 10.1611C6.49284 10.2275 6.62842 10.2607 6.77783 10.2607Z" fill="#0D1821"/>
</svg>
