<svg width="14" height="16" viewBox="0 0 14 16" fill="none" xmlns="http://www.w3.org/2000/svg">
<path d="M6.75 0.693848C6.96582 0.693848 7.1429 0.763021 7.28125 0.901367C7.4196 1.03971 7.48877 1.2168 7.48877 1.43262V9.81641L7.43066 11.5928L9.9292 8.86182L11.7886 7.02734C11.855 6.96094 11.9352 6.91113 12.0293 6.87793C12.1234 6.83919 12.2202 6.81982 12.3198 6.81982C12.5301 6.81982 12.7017 6.89176 12.8345 7.03564C12.9728 7.17399 13.042 7.34554 13.042 7.55029C13.042 7.6499 13.0199 7.74674 12.9756 7.84082C12.9368 7.92936 12.876 8.0179 12.793 8.10645L7.30615 13.6016C7.22868 13.6846 7.14014 13.7482 7.04053 13.7925C6.94645 13.8368 6.84961 13.8589 6.75 13.8589C6.64486 13.8589 6.54525 13.8368 6.45117 13.7925C6.3571 13.7482 6.27132 13.6846 6.19385 13.6016L0.69873 8.10645C0.621257 8.0179 0.560384 7.92936 0.516113 7.84082C0.477376 7.74674 0.458008 7.6499 0.458008 7.55029C0.458008 7.34554 0.524414 7.17399 0.657227 7.03564C0.795573 6.89176 0.969889 6.81982 1.18018 6.81982C1.27979 6.81982 1.37663 6.83919 1.4707 6.87793C1.56478 6.91113 1.64502 6.96094 1.71143 7.02734L3.5708 8.86182L6.06934 11.6011L6.00293 9.81641V1.43262C6.00293 1.2168 6.0721 1.03971 6.21045 0.901367C6.35433 0.763021 6.53418 0.693848 6.75 0.693848ZM1.13867 13.8423H12.3364C12.5522 13.8423 12.7266 13.9115 12.8594 14.0498C12.9977 14.1882 13.0669 14.3652 13.0669 14.5811C13.0669 14.7969 12.9977 14.974 12.8594 15.1123C12.7266 15.2562 12.5522 15.3281 12.3364 15.3281H1.13867C0.928385 15.3281 0.756836 15.2562 0.624023 15.1123C0.491211 14.974 0.424805 14.7969 0.424805 14.5811C0.424805 14.3652 0.491211 14.1882 0.624023 14.0498C0.756836 13.9115 0.928385 13.8423 1.13867 13.8423Z" fill="currentColor"/>
</svg>
