<svg width="14" height="8" viewBox="0 0 14 8" fill="none" xmlns="http://www.w3.org/2000/svg">
    <path
        d="M7.01172 7.99512C6.68359 7.99512 6.38281 7.86068 6.10938 7.5918L1.05078 2.41699C0.950521 2.31217 0.873047 2.19824 0.818359 2.0752C0.768229 1.94759 0.743164 1.81087 0.743164 1.66504C0.743164 1.45996 0.791016 1.27539 0.886719 1.11133C0.986979 0.942708 1.11914 0.810547 1.2832 0.714844C1.44727 0.614583 1.62956 0.564453 1.83008 0.564453C2.13542 0.564453 2.4043 0.680664 2.63672 0.913086L7.29199 5.70508H6.73828L11.3799 0.913086C11.6123 0.680664 11.8789 0.564453 12.1797 0.564453C12.3802 0.564453 12.5625 0.614583 12.7266 0.714844C12.8906 0.810547 13.0205 0.942708 13.1162 1.11133C13.2165 1.27539 13.2666 1.45996 13.2666 1.66504C13.2666 1.96126 13.1641 2.21191 12.959 2.41699L7.90723 7.5918C7.77051 7.72852 7.62923 7.82878 7.4834 7.89258C7.33757 7.95638 7.18034 7.99056 7.01172 7.99512Z"
        fill="currentColor" />
</svg>