<svg width="15" height="15" viewBox="0 0 15 15" fill="none" xmlns="http://www.w3.org/2000/svg">
<path d="M3.19531 13.2891L1.24219 14.0312C1.11719 14.0833 1.0026 14.0547 0.898438 13.9453C0.794271 13.8411 0.768229 13.724 0.820312 13.5938L1.59375 11.6875L10.5703 2.71094L12.1719 4.32031L3.19531 13.2891ZM12.9609 3.53906L11.3516 1.92969L12.2344 1.05469C12.4531 0.841146 12.6797 0.726562 12.9141 0.710938C13.1536 0.695312 13.3724 0.789062 13.5703 0.992188L13.9062 1.32812C14.1094 1.53125 14.2057 1.75 14.1953 1.98438C14.1849 2.21354 14.0703 2.4401 13.8516 2.66406L12.9609 3.53906Z" fill="currentColor"/>
</svg>
