<svg width="16" height="13" viewBox="0 0 16 13" fill="none" xmlns="http://www.w3.org/2000/svg">
<path d="M5.60938 12.3945C5.09766 12.3945 4.70898 12.2656 4.44336 12.0078C4.17773 11.75 4.04492 11.3672 4.04492 10.8594L6.01953 9.14258C6.13281 9.04883 6.24414 8.97852 6.35352 8.93164C6.4668 8.88086 6.58008 8.85547 6.69336 8.85547C6.81836 8.85547 6.93945 8.87891 7.05664 8.92578C7.17773 8.97266 7.29492 9.04883 7.4082 9.1543L8.35156 10.0039L10.7188 7.90625C10.8398 7.79688 10.9648 7.71875 11.0938 7.67188C11.2227 7.62109 11.3613 7.5957 11.5098 7.5957C11.6504 7.5957 11.7891 7.62305 11.9258 7.67773C12.0625 7.72852 12.1875 7.80664 12.3008 7.91211L15.0195 10.4785V10.8535C15.0195 11.3652 14.8867 11.75 14.6211 12.0078C14.3555 12.2656 13.9668 12.3945 13.4551 12.3945H5.60938ZM7.92969 8.04102C7.58594 8.04102 7.29297 7.91797 7.05078 7.67188C6.80859 7.42578 6.6875 7.13086 6.6875 6.78711C6.6875 6.45117 6.80859 6.16016 7.05078 5.91406C7.29297 5.66797 7.58594 5.54492 7.92969 5.54492C8.15625 5.54492 8.36328 5.60156 8.55078 5.71484C8.73828 5.82812 8.88672 5.98047 8.99609 6.17188C9.10938 6.35938 9.16602 6.56445 9.16602 6.78711C9.16602 7.13086 9.04492 7.42578 8.80273 7.67188C8.56055 7.91797 8.26953 8.04102 7.92969 8.04102ZM1.50195 9.38867L0.541016 3.94531C0.435547 3.35156 0.507812 2.87891 0.757812 2.52734C1.00781 2.17578 1.43359 1.94531 2.03516 1.83594L9.92188 0.447266C10.5234 0.341797 11 0.412109 11.3516 0.658203C11.707 0.904297 11.9395 1.32422 12.0488 1.91797L12.3887 3.82812H11.4336L11.1289 2.12891C11.0742 1.83203 10.9551 1.62109 10.7715 1.49609C10.5879 1.37109 10.3535 1.33203 10.0684 1.37891L2.2168 2.76172C1.92773 2.8125 1.71875 2.92969 1.58984 3.11328C1.46094 3.29297 1.42383 3.5332 1.47852 3.83398L2.42188 9.17773C2.47656 9.47852 2.59375 9.69141 2.77344 9.81641C2.95703 9.94141 3.19336 9.97852 3.48242 9.92773L4.34375 9.77539V10.7305L3.62891 10.8594C3.02344 10.9609 2.54492 10.8906 2.19336 10.6484C1.8418 10.4023 1.61133 9.98242 1.50195 9.38867ZM5.5918 12.7051C4.97852 12.7051 4.51758 12.5527 4.20898 12.248C3.9043 11.9473 3.75195 11.4941 3.75195 10.8887V5.36328C3.75195 4.75781 3.9043 4.30469 4.20898 4.00391C4.51758 3.69922 4.97852 3.54688 5.5918 3.54688H13.5957C14.2051 3.54688 14.6641 3.69922 14.9727 4.00391C15.2812 4.30859 15.4355 4.76172 15.4355 5.36328V10.8887C15.4355 11.4941 15.2812 11.9473 14.9727 12.248C14.6641 12.5527 14.2051 12.7051 13.5957 12.7051H5.5918ZM5.60352 11.7617H13.5781C13.8672 11.7617 14.0918 11.6836 14.252 11.5273C14.4121 11.375 14.4922 11.1465 14.4922 10.8418V5.41602C14.4922 5.11133 14.4121 4.88086 14.252 4.72461C14.0918 4.56836 13.8672 4.49023 13.5781 4.49023H5.60352C5.31055 4.49023 5.08594 4.56836 4.92969 4.72461C4.77344 4.88086 4.69531 5.11133 4.69531 5.41602V10.8418C4.69531 11.1465 4.77344 11.375 4.92969 11.5273C5.08594 11.6836 5.31055 11.7617 5.60352 11.7617Z" fill="white"/>
</svg>
