<svg width="13" height="13" viewBox="0 0 13 13" fill="none">
<path d="M6.23633 12.957C5.38867 12.957 4.5918 12.7949 3.8457 12.4707C3.09961 12.1504 2.44141 11.7051 1.87109 11.1348C1.30078 10.5684 0.853516 9.91211 0.529297 9.16602C0.208984 8.41992 0.0488281 7.62109 0.0488281 6.76953C0.0488281 5.92188 0.208984 5.125 0.529297 4.37891C0.853516 3.63281 1.29883 2.97461 1.86523 2.4043C2.43555 1.83398 3.09375 1.38867 3.83984 1.06836C4.58984 0.744141 5.38867 0.582031 6.23633 0.582031C7.08398 0.582031 7.88086 0.744141 8.62695 1.06836C9.37695 1.38867 10.0352 1.83398 10.6016 2.4043C11.1719 2.97461 11.6191 3.63281 11.9434 4.37891C12.2676 5.125 12.4297 5.92188 12.4297 6.76953C12.4297 7.62109 12.2676 8.41992 11.9434 9.16602C11.6191 9.91211 11.1719 10.5684 10.6016 11.1348C10.0352 11.7051 9.37891 12.1504 8.63281 12.4707C7.88672 12.7949 7.08789 12.957 6.23633 12.957ZM5.12891 10.1035H7.61914C7.7793 10.1035 7.91406 10.0527 8.02344 9.95117C8.13672 9.84961 8.19336 9.71484 8.19336 9.54688C8.19336 9.39453 8.13672 9.26562 8.02344 9.16016C7.91406 9.05078 7.7793 8.99609 7.61914 8.99609H7.06836V6.45898C7.06836 6.24023 7.01562 6.06641 6.91016 5.9375C6.80469 5.80469 6.64844 5.73828 6.44141 5.73828H5.24609C5.08594 5.73828 4.94922 5.79297 4.83594 5.90234C4.72656 6.00781 4.67188 6.13672 4.67188 6.28906C4.67188 6.45312 4.72656 6.58789 4.83594 6.69336C4.94922 6.79492 5.08594 6.8457 5.24609 6.8457H5.80859V8.99609H5.12891C4.96875 8.99609 4.83203 9.05078 4.71875 9.16016C4.60938 9.26562 4.55469 9.39453 4.55469 9.54688C4.55469 9.71484 4.60938 9.84961 4.71875 9.95117C4.83203 10.0527 4.96875 10.1035 5.12891 10.1035ZM6.23047 4.89453C6.48047 4.89453 6.69336 4.80469 6.86914 4.625C7.04883 4.44531 7.13867 4.23047 7.13867 3.98047C7.13867 3.72266 7.04883 3.50586 6.86914 3.33008C6.69336 3.15039 6.48047 3.06055 6.23047 3.06055C5.98047 3.06055 5.76562 3.15039 5.58594 3.33008C5.40625 3.50586 5.31641 3.72266 5.31641 3.98047C5.31641 4.23047 5.40625 4.44531 5.58594 4.625C5.76562 4.80469 5.98047 4.89453 6.23047 4.89453Z" fill="#344966"/>
</svg>
