<svg width="15" height="19" viewBox="0 0 15 19" fill="none" xmlns="http://www.w3.org/2000/svg">
<path d="M3.25 18.6484C2.40625 18.6484 1.76823 18.4349 1.33594 18.0078C0.903646 17.5807 0.6875 16.9479 0.6875 16.1094V8.42188C0.6875 7.58854 0.903646 6.95833 1.33594 6.53125C1.76823 6.09896 2.40625 5.88281 3.25 5.88281H5.51562V7.42188H3.34375C2.97917 7.42188 2.70052 7.51823 2.50781 7.71094C2.32031 7.89844 2.22656 8.18229 2.22656 8.5625V15.9766C2.22656 16.3568 2.32031 16.6406 2.50781 16.8281C2.70052 17.0208 2.97917 17.1172 3.34375 17.1172H12.1484C12.5078 17.1172 12.7839 17.0208 12.9766 16.8281C13.1745 16.6406 13.2734 16.3568 13.2734 15.9766V8.5625C13.2734 8.18229 13.1745 7.89844 12.9766 7.71094C12.7839 7.51823 12.5078 7.42188 12.1484 7.42188H9.98438V5.88281H12.25C13.0938 5.88281 13.7318 6.09896 14.1641 6.53125C14.5964 6.95833 14.8125 7.58854 14.8125 8.42188V16.1094C14.8125 16.9427 14.5964 17.5729 14.1641 18C13.7318 18.4323 13.0938 18.6484 12.25 18.6484H3.25ZM7.75 12.4219C7.55208 12.4219 7.38021 12.3516 7.23438 12.2109C7.09375 12.0703 7.02344 11.9036 7.02344 11.7109V3.84375L7.08594 2.67969L6.59375 3.25L5.5 4.42188C5.375 4.5625 5.21354 4.63281 5.01562 4.63281C4.83333 4.63281 4.67969 4.57552 4.55469 4.46094C4.4349 4.34115 4.375 4.1901 4.375 4.00781C4.375 3.84115 4.4401 3.6875 4.57031 3.54688L7.19531 1.02344C7.29427 0.929688 7.38802 0.864583 7.47656 0.828125C7.5651 0.791667 7.65625 0.773438 7.75 0.773438C7.84375 0.773438 7.9349 0.791667 8.02344 0.828125C8.11198 0.864583 8.20312 0.929688 8.29688 1.02344L10.9219 3.54688C11.0573 3.6875 11.125 3.84115 11.125 4.00781C11.125 4.1901 11.0599 4.34115 10.9297 4.46094C10.8047 4.57552 10.6536 4.63281 10.4766 4.63281C10.2839 4.63281 10.1224 4.5625 9.99219 4.42188L8.89844 3.25L8.41406 2.67969L8.47656 3.84375V11.7109C8.47656 11.9036 8.40365 12.0703 8.25781 12.2109C8.11719 12.3516 7.94792 12.4219 7.75 12.4219Z" fill="currentColor"/>
</svg>
