<svg width="15" height="17" viewBox="0 0 15 17" fill="none" xmlns="http://www.w3.org/2000/svg">
<path d="M7.53125 16.3359C7.45833 16.3359 7.3724 16.3203 7.27344 16.2891C7.17448 16.263 7.07292 16.224 6.96875 16.1719C5.85938 15.5781 4.91927 15.0417 4.14844 14.5625C3.38281 14.0885 2.76562 13.6224 2.29688 13.1641C1.83333 12.7057 1.49479 12.2135 1.28125 11.6875C1.06771 11.1562 0.960938 10.5391 0.960938 9.83594V4.08594C0.960938 3.59115 1.05729 3.22396 1.25 2.98438C1.44271 2.73958 1.75 2.53125 2.17188 2.35938C2.33333 2.29688 2.5625 2.21094 2.85938 2.10156C3.16146 1.98698 3.49219 1.86458 3.85156 1.73438C4.21615 1.59896 4.57812 1.46875 4.9375 1.34375C5.30208 1.21875 5.63281 1.10677 5.92969 1.00781C6.22656 0.903646 6.45312 0.825521 6.60938 0.773438C6.75521 0.731771 6.90885 0.697917 7.07031 0.671875C7.23177 0.640625 7.38542 0.625 7.53125 0.625C7.67188 0.625 7.82292 0.640625 7.98438 0.671875C8.15104 0.697917 8.30729 0.731771 8.45312 0.773438C8.60938 0.825521 8.83333 0.903646 9.125 1.00781C9.42188 1.10677 9.75 1.22135 10.1094 1.35156C10.474 1.47656 10.8385 1.60417 11.2031 1.73438C11.5677 1.86458 11.8984 1.98438 12.1953 2.09375C12.4974 2.20312 12.7292 2.29167 12.8906 2.35938C13.3125 2.53646 13.6172 2.74479 13.8047 2.98438C13.9974 3.22396 14.0938 3.59115 14.0938 4.08594V9.83594C14.0938 10.5391 13.9896 11.1589 13.7812 11.6953C13.5781 12.2318 13.2422 12.7344 12.7734 13.2031C12.3099 13.6667 11.6927 14.1328 10.9219 14.6016C10.1562 15.0755 9.21094 15.599 8.08594 16.1719C7.98698 16.224 7.88802 16.263 7.78906 16.2891C7.6901 16.3203 7.60417 16.3359 7.53125 16.3359ZM6.66406 11.9844C6.82031 11.9844 6.96354 11.9479 7.09375 11.875C7.22917 11.7969 7.34375 11.6901 7.4375 11.5547L11.0859 5.91406C11.1432 5.82552 11.1901 5.73177 11.2266 5.63281C11.2682 5.53385 11.2891 5.4349 11.2891 5.33594C11.2891 5.11719 11.2057 4.9401 11.0391 4.80469C10.8776 4.66927 10.6927 4.60156 10.4844 4.60156C10.2083 4.60156 9.97656 4.75 9.78906 5.04688L6.64062 10.0781L5.19531 8.26562C5.09115 8.13542 4.98698 8.04427 4.88281 7.99219C4.77865 7.9349 4.66146 7.90625 4.53125 7.90625C4.3125 7.90625 4.1276 7.98438 3.97656 8.14062C3.82552 8.29167 3.75 8.47656 3.75 8.69531C3.75 8.79948 3.76823 8.90104 3.80469 9C3.84635 9.09375 3.90365 9.1901 3.97656 9.28906L5.85938 11.5547C5.97396 11.7005 6.09635 11.8099 6.22656 11.8828C6.35677 11.9505 6.5026 11.9844 6.66406 11.9844Z" fill="#0D1821"/>
</svg>
