<svg width="10" height="12" viewBox="0 0 10 12" fill="none" xmlns="http://www.w3.org/2000/svg">
    <path
        d="M5.09961 11.3535C4.88477 11.3535 4.70898 11.2852 4.57227 11.1484C4.43945 11.0117 4.37305 10.832 4.37305 10.6094V3.66016L4.44922 1.62695L4.87695 1.87305L3.03125 3.96484L1.70703 5.27734C1.64062 5.34375 1.56445 5.39648 1.47852 5.43555C1.39258 5.47461 1.29688 5.49414 1.19141 5.49414C0.992188 5.49414 0.826172 5.42773 0.693359 5.29492C0.560547 5.16211 0.494141 4.99414 0.494141 4.79102C0.494141 4.5957 0.570312 4.41992 0.722656 4.26367L4.56055 0.414062C4.63086 0.34375 4.71289 0.289063 4.80664 0.25C4.9043 0.210937 5.00195 0.191406 5.09961 0.191406C5.20117 0.191406 5.29883 0.210937 5.39258 0.25C5.49023 0.289063 5.57422 0.34375 5.64453 0.414062L9.48242 4.26367C9.63477 4.41992 9.71094 4.5957 9.71094 4.79102C9.71094 4.99414 9.64453 5.16211 9.51172 5.29492C9.37891 5.42773 9.21289 5.49414 9.01367 5.49414C8.9082 5.49414 8.81055 5.47461 8.7207 5.43555C8.63477 5.39648 8.55859 5.34375 8.49219 5.27734L7.16797 3.96484L5.31641 1.87305L5.75 1.62695L5.82617 3.66016V10.6094C5.82617 10.832 5.75781 11.0117 5.62109 11.1484C5.48828 11.2852 5.31445 11.3535 5.09961 11.3535Z"
        fill="currentColor" />
</svg>