<svg width="26" height="20" viewBox="0 0 26 20" fill="none" xmlns="http://www.w3.org/2000/svg">
    <path
        d="M6.24219 0.886719C6.50911 0.60026 6.82812 0.457031 7.19922 0.457031C7.57682 0.457031 7.90234 0.60026 8.17578 0.886719L13.0879 5.92578C13.3483 6.19271 13.4785 6.50521 13.4785 6.86328C13.4785 7.24089 13.3581 7.55339 13.1172 7.80078C12.8763 8.04167 12.5671 8.16211 12.1895 8.16211C11.8249 8.16211 11.5254 8.03516 11.291 7.78125L9.29883 5.7207L8.45898 4.73438L8.50781 6.53125V18.1426C8.50781 18.5202 8.38411 18.8327 8.13672 19.0801C7.88932 19.3275 7.58008 19.4512 7.20898 19.4512C6.83138 19.4512 6.51888 19.3275 6.27148 19.0801C6.02409 18.8327 5.90039 18.5202 5.90039 18.1426V6.53125L5.95898 4.73438L5.10938 5.7207L3.12695 7.78125C2.89258 8.03516 2.58984 8.16211 2.21875 8.16211C1.84115 8.16211 1.5319 8.04167 1.29102 7.80078C1.05013 7.55339 0.929688 7.24089 0.929688 6.86328C0.929688 6.50521 1.06315 6.19271 1.33008 5.92578L6.24219 0.886719ZM19.7676 19.0312C19.4941 19.3112 19.1686 19.4512 18.791 19.4512C18.4199 19.4512 18.1009 19.3112 17.834 19.0312L12.9219 13.9727C12.6549 13.7122 12.5215 13.3997 12.5215 13.0352C12.5215 12.6576 12.6419 12.3483 12.8828 12.1074C13.1302 11.8665 13.4427 11.7461 13.8203 11.7461C14.1849 11.7461 14.4844 11.8698 14.7188 12.1172L16.7012 14.1777L17.5508 15.1641L17.4922 13.3672V1.76562C17.4922 1.38802 17.6159 1.07552 17.8633 0.828125C18.1107 0.580729 18.4232 0.457031 18.8008 0.457031C19.1719 0.457031 19.4811 0.580729 19.7285 0.828125C19.9759 1.07552 20.0996 1.38802 20.0996 1.76562V13.3672L20.0508 15.1641L20.9004 14.1777L22.873 12.1172C23.1074 11.8698 23.4102 11.7461 23.7812 11.7461C24.1589 11.7461 24.4681 11.8665 24.709 12.1074C24.9499 12.3483 25.0703 12.6576 25.0703 13.0352C25.0703 13.3997 24.9368 13.7122 24.6699 13.9727L19.7676 19.0312Z"
        fill="currentColor" />
</svg>