<svg width="18" height="18" viewBox="0 0 18 18" fill="none" xmlns="http://www.w3.org/2000/svg">
<path d="M6.44336 17.4653C6.07812 17.4653 5.75993 17.4238 5.48877 17.3408C5.21761 17.2633 4.97135 17.1471 4.75 16.9922C4.53418 16.8372 4.32666 16.6491 4.12744 16.4277L0.948242 12.8501C0.74349 12.6232 0.585775 12.4157 0.475098 12.2275C0.369954 12.0339 0.295247 11.8291 0.250977 11.6133C0.21224 11.3975 0.192871 11.1374 0.192871 10.833V7.18896C0.192871 6.8846 0.21224 6.62451 0.250977 6.40869C0.295247 6.18734 0.369954 5.98258 0.475098 5.79443C0.585775 5.60075 0.74349 5.39323 0.948242 5.17188L4.12744 1.59424C4.32666 1.36735 4.53418 1.1792 4.75 1.02979C4.97135 0.874837 5.21761 0.755859 5.48877 0.672852C5.75993 0.589844 6.07812 0.54834 6.44336 0.54834H11.5566C11.9163 0.54834 12.2318 0.589844 12.5029 0.672852C12.7796 0.750326 13.0259 0.866536 13.2417 1.02148C13.4631 1.17643 13.6733 1.36735 13.8726 1.59424L16.9937 5.17188C17.1984 5.4043 17.3589 5.61735 17.4751 5.81104C17.5968 5.99919 17.6826 6.20117 17.7324 6.41699C17.7822 6.62728 17.8071 6.8846 17.8071 7.18896V10.833C17.8071 11.1374 17.785 11.3975 17.7407 11.6133C17.702 11.8291 17.6273 12.0339 17.5166 12.2275C17.4059 12.4157 17.2537 12.6232 17.0601 12.8501L13.8726 16.4277C13.6733 16.6491 13.4631 16.8372 13.2417 16.9922C13.0259 17.1471 12.7796 17.2633 12.5029 17.3408C12.2318 17.4238 11.9163 17.4653 11.5566 17.4653H6.44336ZM9.0083 10.3599C9.53955 10.3599 9.81624 10.0832 9.83838 9.52979L9.97119 5.60352C9.98226 5.33236 9.89372 5.10824 9.70557 4.93115C9.52295 4.74854 9.28776 4.65723 9 4.65723C8.70671 4.65723 8.46875 4.74577 8.28613 4.92285C8.10352 5.09993 8.01774 5.32682 8.02881 5.60352L8.15332 9.52979C8.17546 10.0832 8.46045 10.3599 9.0083 10.3599ZM9.0083 13.2817C9.30713 13.2817 9.56169 13.1904 9.77197 13.0078C9.98226 12.8197 10.0874 12.5789 10.0874 12.2856C10.0874 11.9979 9.98226 11.7599 9.77197 11.5718C9.56169 11.3836 9.30713 11.2896 9.0083 11.2896C8.70394 11.2896 8.44661 11.3836 8.23633 11.5718C8.02604 11.7599 7.9209 11.9979 7.9209 12.2856C7.9209 12.5789 8.02604 12.8197 8.23633 13.0078C8.45215 13.1904 8.70947 13.2817 9.0083 13.2817Z" fill="black"/>
</svg>
