<svg width="14" height="16" viewBox="0 0 14 16" fill="none" xmlns="http://www.w3.org/2000/svg">
<path d="M5.09912 13.4893C4.94417 13.4893 4.81966 13.445 4.72559 13.3564C4.63151 13.2679 4.58171 13.1462 4.57617 12.9912L4.38525 6.40039C4.38525 6.25098 4.42952 6.132 4.51807 6.04346C4.61214 5.94938 4.73942 5.90234 4.8999 5.90234C5.04932 5.90234 5.17383 5.94661 5.27344 6.03516C5.37305 6.1237 5.42285 6.24544 5.42285 6.40039L5.61377 12.9912C5.6193 13.1406 5.57227 13.2624 5.47266 13.3564C5.37858 13.445 5.25407 13.4893 5.09912 13.4893ZM7 13.4893C6.84505 13.4893 6.71777 13.445 6.61816 13.3564C6.51855 13.2624 6.46875 13.1434 6.46875 12.9995V6.39209C6.46875 6.24821 6.51855 6.132 6.61816 6.04346C6.71777 5.94938 6.84505 5.90234 7 5.90234C7.16048 5.90234 7.28776 5.94938 7.38184 6.04346C7.47591 6.132 7.52295 6.24821 7.52295 6.39209V12.9995C7.52295 13.1434 7.47591 13.2624 7.38184 13.3564C7.28776 13.445 7.16048 13.4893 7 13.4893ZM8.90088 13.4893C8.7404 13.4893 8.61312 13.445 8.51904 13.3564C8.42497 13.2624 8.3807 13.1406 8.38623 12.9912L8.57715 6.40039C8.58268 6.24544 8.63249 6.1237 8.72656 6.03516C8.82064 5.94661 8.94515 5.90234 9.1001 5.90234C9.25505 5.90234 9.37956 5.94938 9.47363 6.04346C9.56771 6.132 9.61198 6.25098 9.60645 6.40039L9.42383 12.9912C9.41829 13.1462 9.36572 13.2679 9.26611 13.3564C9.17204 13.445 9.05029 13.4893 8.90088 13.4893ZM3.92041 3.98486V2.60693C3.92041 2.07015 4.08089 1.65511 4.40186 1.36182C4.72835 1.06299 5.1849 0.913574 5.77148 0.913574H8.21191C8.7985 0.913574 9.25228 1.06299 9.57324 1.36182C9.89974 1.65511 10.063 2.07015 10.063 2.60693V3.98486H8.61035V2.67334C8.61035 2.52946 8.56331 2.41602 8.46924 2.33301C8.3807 2.24447 8.25895 2.2002 8.104 2.2002H5.87939C5.72445 2.2002 5.59993 2.24447 5.50586 2.33301C5.41732 2.41602 5.37305 2.52946 5.37305 2.67334V3.98486H3.92041ZM1.14795 4.90625C0.954264 4.90625 0.788249 4.84261 0.649902 4.71533C0.51709 4.58252 0.450684 4.4165 0.450684 4.21729C0.450684 4.0236 0.51709 3.86312 0.649902 3.73584C0.788249 3.60303 0.954264 3.53662 1.14795 3.53662H12.8521C13.0457 3.53662 13.209 3.60303 13.3418 3.73584C13.4746 3.86312 13.541 4.0236 13.541 4.21729C13.541 4.4165 13.4746 4.58252 13.3418 4.71533C13.209 4.84261 13.0457 4.90625 12.8521 4.90625H1.14795ZM3.99512 15.8218C3.44173 15.8218 3.00456 15.6724 2.68359 15.3735C2.36816 15.0802 2.19661 14.6597 2.16895 14.1118L1.74561 4.78174H3.17334L3.58838 13.8213C3.59945 14.0094 3.65755 14.1589 3.7627 14.2695C3.86784 14.3802 4.00342 14.4355 4.16943 14.4355H9.82227C9.99382 14.4355 10.1322 14.3802 10.2373 14.2695C10.3424 14.1589 10.3978 14.0094 10.4033 13.8213L10.8101 4.78174H12.2544L11.8311 14.1035C11.8034 14.6514 11.6291 15.0747 11.3081 15.3735C10.9871 15.6724 10.5527 15.8218 10.0049 15.8218H3.99512Z" fill="currentColor"/>
</svg>
